<svg preserveAspectRatio="none" overflow="visible" style="display: block;" width="178.75" height="173.125" viewBox="0 0 178.75 173.125" fill="none" xmlns="http://www.w3.org/2000/svg">
<g id="bed 2" filter="url(#filter0_dddddd_0_27)">
<g clip-path="url(#clip0_0_27)">
<path id="Vector" d="M80.9375 38C81.4561 38 81.875 38.4189 81.875 38.9375V46.4375H88.4375V41.75C88.4375 41.2314 88.8564 40.8125 89.375 40.8125H95.9375C97.4902 40.8125 98.75 42.0723 98.75 43.625V50.1875C98.75 50.7061 98.3311 51.125 97.8125 51.125C97.2939 51.125 96.875 50.7061 96.875 50.1875V49.25H90.3125H89.375H81.875V50.1875C81.875 50.7061 81.4561 51.125 80.9375 51.125C80.4189 51.125 80 50.7061 80 50.1875V38.9375C80 38.4189 80.4189 38 80.9375 38ZM85.1562 40.8125C85.7779 40.8125 86.374 41.0594 86.8135 41.499C87.2531 41.9385 87.5 42.5346 87.5 43.1562C87.5 43.7779 87.2531 44.374 86.8135 44.8135C86.374 45.2531 85.7779 45.5 85.1562 45.5C84.5346 45.5 83.9385 45.2531 83.499 44.8135C83.0594 44.374 82.8125 43.7779 82.8125 43.1562C82.8125 42.5346 83.0594 41.9385 83.499 41.499C83.9385 41.0594 84.5346 40.8125 85.1562 40.8125Z" fill="white"/>
</g>
</g>
<defs>
<filter id="filter0_dddddd_0_27" x="0" y="-0.9375" width="178.75" height="175" filterUnits="userSpaceOnUse" color-interpolation-filters="sRGB">
<feFlood flood-opacity="0" result="BackgroundImageFix"/>
<feColorMatrix in="SourceAlpha" type="matrix" values="0 0 0 0 0 0 0 0 0 0 0 0 0 0 0 0 0 0 127 0" result="hardAlpha"/>
<feOffset dy="1.16225"/>
<feGaussianBlur stdDeviation="1.1069"/>
<feColorMatrix type="matrix" values="0 0 0 0 0 0 0 0 0 0 0 0 0 0 0 0 0 0 0.0337375 0"/>
<feBlend mode="normal" in2="BackgroundImageFix" result="effect1_dropShadow_0_27"/>
<feColorMatrix in="SourceAlpha" type="matrix" values="0 0 0 0 0 0 0 0 0 0 0 0 0 0 0 0 0 0 127 0" result="hardAlpha"/>
<feOffset dy="2.79304"/>
<feGaussianBlur stdDeviation="2.66004"/>
<feColorMatrix type="matrix" values="0 0 0 0 0 0 0 0 0 0 0 0 0 0 0 0 0 0 0.0484671 0"/>
<feBlend mode="normal" in2="effect1_dropShadow_0_27" result="effect2_dropShadow_0_27"/>
<feColorMatrix in="SourceAlpha" type="matrix" values="0 0 0 0 0 0 0 0 0 0 0 0 0 0 0 0 0 0 127 0" result="hardAlpha"/>
<feOffset dy="5.25905"/>
<feGaussianBlur stdDeviation="5.00862"/>
<feColorMatrix type="matrix" values="0 0 0 0 0 0 0 0 0 0 0 0 0 0 0 0 0 0 0.06 0"/>
<feBlend mode="normal" in2="effect2_dropShadow_0_27" result="effect3_dropShadow_0_27"/>
<feColorMatrix in="SourceAlpha" type="matrix" values="0 0 0 0 0 0 0 0 0 0 0 0 0 0 0 0 0 0 127 0" result="hardAlpha"/>
<feOffset dy="9.38125"/>
<feGaussianBlur stdDeviation="8.93452"/>
<feColorMatrix type="matrix" values="0 0 0 0 0 0 0 0 0 0 0 0 0 0 0 0 0 0 0.0715329 0"/>
<feBlend mode="normal" in2="effect3_dropShadow_0_27" result="effect4_dropShadow_0_27"/>
<feColorMatrix in="SourceAlpha" type="matrix" values="0 0 0 0 0 0 0 0 0 0 0 0 0 0 0 0 0 0 127 0" result="hardAlpha"/>
<feOffset dy="17.5466"/>
<feGaussianBlur stdDeviation="16.711"/>
<feColorMatrix type="matrix" values="0 0 0 0 0 0 0 0 0 0 0 0 0 0 0 0 0 0 0.0862625 0"/>
<feBlend mode="normal" in2="effect4_dropShadow_0_27" result="effect5_dropShadow_0_27"/>
<feColorMatrix in="SourceAlpha" type="matrix" values="0 0 0 0 0 0 0 0 0 0 0 0 0 0 0 0 0 0 127 0" result="hardAlpha"/>
<feOffset dy="42"/>
<feGaussianBlur stdDeviation="40"/>
<feColorMatrix type="matrix" values="0 0 0 0 0 0 0 0 0 0 0 0 0 0 0 0 0 0 0.12 0"/>
<feBlend mode="normal" in2="effect5_dropShadow_0_27" result="effect6_dropShadow_0_27"/>
<feBlend mode="normal" in="SourceGraphic" in2="effect6_dropShadow_0_27" result="shape"/>
</filter>
<clipPath id="clip0_0_27">
<rect width="18.75" height="15" fill="white" transform="translate(80 37.0625)"/>
</clipPath>
</defs>
</svg>
